# xmcd
#
# Track frame offsets:
#	151
#	18671
#	42740
#	70834
#	84102
#	102436
#	121777
#	140337
#	156861
#	176849
#
# Disc length: 2664 seconds
#
# Revision: 1
# Processed by: cddbd v1.5.2PL0 Copyright (c) Steve Scherf et al.
# Submitted via: audiograbber 1.83.01
#
DISCID=830a660a
DTITLE=The Aynsley Dunbar Retaliation - THE AYNSLEY DUNBAR RETALIATION - Remain
DTITLE=s To Be Heard
DYEAR=1900
DGENRE=Blues
TTITLE0=Invitation to a lady
TTITLE1=Blood on your wheels
TTITLE2=Downhearted
TTITLE3=Whistlin' blues
TTITLE4=Keep your hands out
TTITLE5=Sleepy town sister
TTITLE6=Fortune city
TTITLE7=Put some love on you
TTITLE8=Bloody souvenir
TTITLE9=Toga
EXTD=
EXTT0=
EXTT1=
EXTT2=
EXTT3=
EXTT4=
EXTT5=
EXTT6=
EXTT7=
EXTT8=
EXTT9=
PLAYORDER=
